<svg xmlns="http://www.w3.org/2000/svg" xmlns:xlink="http://www.w3.org/1999/xlink" version="1.1" width="256" height="256" viewBox="0 0 256 256" xml:space="preserve">

<defs>
</defs>
<g style="stroke: none; stroke-width: 0; stroke-dasharray: none; stroke-linecap: butt; stroke-linejoin: miter; stroke-miterlimit: 10; fill: none; fill-rule: nonzero; opacity: 1;" transform="translate(1.4065934065934016 1.4065934065934016) scale(2.81 2.81)" >
	<path d="M 81.479 0 H 27.411 c -0.552 0 -1 0.448 -1 1 v 36.037 H 8.521 c -0.552 0 -1 0.448 -1 1 V 89 c 0 0.553 0.448 1 1 1 h 33.655 h 39.304 c 0.553 0 1 -0.447 1 -1 V 1 C 82.479 0.448 82.032 0 81.479 0 z M 9.521 39.037 h 31.655 V 88 H 9.521 V 39.037 z M 80.479 88 H 43.176 V 38.037 c 0 -0.552 -0.448 -1 -1 -1 H 28.411 V 2 h 52.069 V 88 z" style="stroke: none; stroke-width: 1; stroke-dasharray: none; stroke-linecap: butt; stroke-linejoin: miter; stroke-miterlimit: 10; fill: rgb(0,0,0); fill-rule: nonzero; opacity: 1;" transform=" matrix(1 0 0 1 0 0) " stroke-linecap="round" />
	<path d="M 37.419 55.007 h -9.563 c -0.552 0 -1 -0.447 -1 -1 V 47.36 c 0 -0.553 0.448 -1 1 -1 h 9.563 c 0.552 0 1 0.447 1 1 v 6.646 C 38.419 54.56 37.972 55.007 37.419 55.007 z M 28.856 53.007 h 7.563 V 48.36 h -7.563 V 53.007 z" style="stroke: none; stroke-width: 1; stroke-dasharray: none; stroke-linecap: butt; stroke-linejoin: miter; stroke-miterlimit: 10; fill: rgb(0,0,0); fill-rule: nonzero; opacity: 1;" transform=" matrix(1 0 0 1 0 0) " stroke-linecap="round" />
	<path d="M 37.419 67.428 h -9.563 c -0.552 0 -1 -0.447 -1 -1 v -6.646 c 0 -0.553 0.448 -1 1 -1 h 9.563 c 0.552 0 1 0.447 1 1 v 6.646 C 38.419 66.98 37.972 67.428 37.419 67.428 z M 28.856 65.428 h 7.563 v -4.646 h -7.563 V 65.428 z" style="stroke: none; stroke-width: 1; stroke-dasharray: none; stroke-linecap: butt; stroke-linejoin: miter; stroke-miterlimit: 10; fill: rgb(0,0,0); fill-rule: nonzero; opacity: 1;" transform=" matrix(1 0 0 1 0 0) " stroke-linecap="round" />
	<path d="M 37.419 79.849 h -9.563 c -0.552 0 -1 -0.447 -1 -1 v -6.646 c 0 -0.553 0.448 -1 1 -1 h 9.563 c 0.552 0 1 0.447 1 1 v 6.646 C 38.419 79.401 37.972 79.849 37.419 79.849 z M 28.856 77.849 h 7.563 v -4.646 h -7.563 V 77.849 z" style="stroke: none; stroke-width: 1; stroke-dasharray: none; stroke-linecap: butt; stroke-linejoin: miter; stroke-miterlimit: 10; fill: rgb(0,0,0); fill-rule: nonzero; opacity: 1;" transform=" matrix(1 0 0 1 0 0) " stroke-linecap="round" />
	<path d="M 22.84 55.007 h -9.563 c -0.552 0 -1 -0.447 -1 -1 V 47.36 c 0 -0.553 0.448 -1 1 -1 h 9.563 c 0.552 0 1 0.447 1 1 v 6.646 C 23.84 54.56 23.392 55.007 22.84 55.007 z M 14.277 53.007 h 7.563 V 48.36 h -7.563 V 53.007 z" style="stroke: none; stroke-width: 1; stroke-dasharray: none; stroke-linecap: butt; stroke-linejoin: miter; stroke-miterlimit: 10; fill: rgb(0,0,0); fill-rule: nonzero; opacity: 1;" transform=" matrix(1 0 0 1 0 0) " stroke-linecap="round" />
	<path d="M 22.84 67.428 h -9.563 c -0.552 0 -1 -0.447 -1 -1 v -6.646 c 0 -0.553 0.448 -1 1 -1 h 9.563 c 0.552 0 1 0.447 1 1 v 6.646 C 23.84 66.98 23.392 67.428 22.84 67.428 z M 14.277 65.428 h 7.563 v -4.646 h -7.563 V 65.428 z" style="stroke: none; stroke-width: 1; stroke-dasharray: none; stroke-linecap: butt; stroke-linejoin: miter; stroke-miterlimit: 10; fill: rgb(0,0,0); fill-rule: nonzero; opacity: 1;" transform=" matrix(1 0 0 1 0 0) " stroke-linecap="round" />
	<path d="M 22.84 79.849 h -9.563 c -0.552 0 -1 -0.447 -1 -1 v -6.646 c 0 -0.553 0.448 -1 1 -1 h 9.563 c 0.552 0 1 0.447 1 1 v 6.646 C 23.84 79.401 23.392 79.849 22.84 79.849 z M 14.277 77.849 h 7.563 v -4.646 h -7.563 V 77.849 z" style="stroke: none; stroke-width: 1; stroke-dasharray: none; stroke-linecap: butt; stroke-linejoin: miter; stroke-miterlimit: 10; fill: rgb(0,0,0); fill-rule: nonzero; opacity: 1;" transform=" matrix(1 0 0 1 0 0) " stroke-linecap="round" />
	<path d="M 59.068 30.172 h -9.563 c -0.553 0 -1 -0.448 -1 -1 v -6.647 c 0 -0.552 0.447 -1 1 -1 h 9.563 c 0.553 0 1 0.448 1 1 v 6.647 C 60.068 29.725 59.621 30.172 59.068 30.172 z M 50.505 28.172 h 7.563 v -4.647 h -7.563 V 28.172 z" style="stroke: none; stroke-width: 1; stroke-dasharray: none; stroke-linecap: butt; stroke-linejoin: miter; stroke-miterlimit: 10; fill: rgb(0,0,0); fill-rule: nonzero; opacity: 1;" transform=" matrix(1 0 0 1 0 0) " stroke-linecap="round" />
	<path d="M 59.068 42.593 h -9.563 c -0.553 0 -1 -0.448 -1 -1 v -6.647 c 0 -0.552 0.447 -1 1 -1 h 9.563 c 0.553 0 1 0.448 1 1 v 6.647 C 60.068 42.146 59.621 42.593 59.068 42.593 z M 50.505 40.593 h 7.563 v -4.647 h -7.563 V 40.593 z" style="stroke: none; stroke-width: 1; stroke-dasharray: none; stroke-linecap: butt; stroke-linejoin: miter; stroke-miterlimit: 10; fill: rgb(0,0,0); fill-rule: nonzero; opacity: 1;" transform=" matrix(1 0 0 1 0 0) " stroke-linecap="round" />
	<path d="M 59.068 55.015 h -9.563 c -0.553 0 -1 -0.447 -1 -1 v -6.647 c 0 -0.553 0.447 -1 1 -1 h 9.563 c 0.553 0 1 0.447 1 1 v 6.647 C 60.068 54.567 59.621 55.015 59.068 55.015 z M 50.505 53.015 h 7.563 v -4.647 h -7.563 V 53.015 z" style="stroke: none; stroke-width: 1; stroke-dasharray: none; stroke-linecap: butt; stroke-linejoin: miter; stroke-miterlimit: 10; fill: rgb(0,0,0); fill-rule: nonzero; opacity: 1;" transform=" matrix(1 0 0 1 0 0) " stroke-linecap="round" />
	<path d="M 44.489 30.172 h -9.563 c -0.552 0 -1 -0.448 -1 -1 v -6.647 c 0 -0.552 0.448 -1 1 -1 h 9.563 c 0.552 0 1 0.448 1 1 v 6.647 C 45.489 29.725 45.041 30.172 44.489 30.172 z M 35.926 28.172 h 7.563 v -4.647 h -7.563 V 28.172 z" style="stroke: none; stroke-width: 1; stroke-dasharray: none; stroke-linecap: butt; stroke-linejoin: miter; stroke-miterlimit: 10; fill: rgb(0,0,0); fill-rule: nonzero; opacity: 1;" transform=" matrix(1 0 0 1 0 0) " stroke-linecap="round" />
	<path d="M 59.068 67.428 h -9.563 c -0.553 0 -1 -0.447 -1 -1 v -6.646 c 0 -0.553 0.447 -1 1 -1 h 9.563 c 0.553 0 1 0.447 1 1 v 6.646 C 60.068 66.98 59.621 67.428 59.068 67.428 z M 50.505 65.428 h 7.563 v -4.646 h -7.563 V 65.428 z" style="stroke: none; stroke-width: 1; stroke-dasharray: none; stroke-linecap: butt; stroke-linejoin: miter; stroke-miterlimit: 10; fill: rgb(0,0,0); fill-rule: nonzero; opacity: 1;" transform=" matrix(1 0 0 1 0 0) " stroke-linecap="round" />
	<path d="M 73.965 30.172 h -9.563 c -0.553 0 -1 -0.448 -1 -1 v -6.647 c 0 -0.552 0.447 -1 1 -1 h 9.563 c 0.553 0 1 0.448 1 1 v 6.647 C 74.965 29.725 74.518 30.172 73.965 30.172 z M 65.401 28.172 h 7.563 v -4.647 h -7.563 V 28.172 z" style="stroke: none; stroke-width: 1; stroke-dasharray: none; stroke-linecap: butt; stroke-linejoin: miter; stroke-miterlimit: 10; fill: rgb(0,0,0); fill-rule: nonzero; opacity: 1;" transform=" matrix(1 0 0 1 0 0) " stroke-linecap="round" />
	<path d="M 73.965 42.593 h -9.563 c -0.553 0 -1 -0.448 -1 -1 v -6.647 c 0 -0.552 0.447 -1 1 -1 h 9.563 c 0.553 0 1 0.448 1 1 v 6.647 C 74.965 42.146 74.518 42.593 73.965 42.593 z M 65.401 40.593 h 7.563 v -4.647 h -7.563 V 40.593 z" style="stroke: none; stroke-width: 1; stroke-dasharray: none; stroke-linecap: butt; stroke-linejoin: miter; stroke-miterlimit: 10; fill: rgb(0,0,0); fill-rule: nonzero; opacity: 1;" transform=" matrix(1 0 0 1 0 0) " stroke-linecap="round" />
	<path d="M 73.965 55.015 h -9.563 c -0.553 0 -1 -0.447 -1 -1 v -6.647 c 0 -0.553 0.447 -1 1 -1 h 9.563 c 0.553 0 1 0.447 1 1 v 6.647 C 74.965 54.567 74.518 55.015 73.965 55.015 z M 65.401 53.015 h 7.563 v -4.647 h -7.563 V 53.015 z" style="stroke: none; stroke-width: 1; stroke-dasharray: none; stroke-linecap: butt; stroke-linejoin: miter; stroke-miterlimit: 10; fill: rgb(0,0,0); fill-rule: nonzero; opacity: 1;" transform=" matrix(1 0 0 1 0 0) " stroke-linecap="round" />
	<path d="M 73.965 67.428 h -9.563 c -0.553 0 -1 -0.447 -1 -1 v -6.646 c 0 -0.553 0.447 -1 1 -1 h 9.563 c 0.553 0 1 0.447 1 1 v 6.646 C 74.965 66.98 74.518 67.428 73.965 67.428 z M 65.401 65.428 h 7.563 v -4.646 h -7.563 V 65.428 z" style="stroke: none; stroke-width: 1; stroke-dasharray: none; stroke-linecap: butt; stroke-linejoin: miter; stroke-miterlimit: 10; fill: rgb(0,0,0); fill-rule: nonzero; opacity: 1;" transform=" matrix(1 0 0 1 0 0) " stroke-linecap="round" />
	<path d="M 59.068 79.842 h -9.563 c -0.553 0 -1 -0.447 -1 -1 v -6.647 c 0 -0.553 0.447 -1 1 -1 h 9.563 c 0.553 0 1 0.447 1 1 v 6.647 C 60.068 79.395 59.621 79.842 59.068 79.842 z M 50.505 77.842 h 7.563 v -4.647 h -7.563 V 77.842 z" style="stroke: none; stroke-width: 1; stroke-dasharray: none; stroke-linecap: butt; stroke-linejoin: miter; stroke-miterlimit: 10; fill: rgb(0,0,0); fill-rule: nonzero; opacity: 1;" transform=" matrix(1 0 0 1 0 0) " stroke-linecap="round" />
	<path d="M 73.965 79.842 h -9.563 c -0.553 0 -1 -0.447 -1 -1 v -6.647 c 0 -0.553 0.447 -1 1 -1 h 9.563 c 0.553 0 1 0.447 1 1 v 6.647 C 74.965 79.395 74.518 79.842 73.965 79.842 z M 65.401 77.842 h 7.563 v -4.647 h -7.563 V 77.842 z" style="stroke: none; stroke-width: 1; stroke-dasharray: none; stroke-linecap: butt; stroke-linejoin: miter; stroke-miterlimit: 10; fill: rgb(0,0,0); fill-rule: nonzero; opacity: 1;" transform=" matrix(1 0 0 1 0 0) " stroke-linecap="round" />
	<path d="M 59.068 17.759 h -9.563 c -0.553 0 -1 -0.448 -1 -1 v -6.647 c 0 -0.552 0.447 -1 1 -1 h 9.563 c 0.553 0 1 0.448 1 1 v 6.647 C 60.068 17.311 59.621 17.759 59.068 17.759 z M 50.505 15.759 h 7.563 v -4.647 h -7.563 V 15.759 z" style="stroke: none; stroke-width: 1; stroke-dasharray: none; stroke-linecap: butt; stroke-linejoin: miter; stroke-miterlimit: 10; fill: rgb(0,0,0); fill-rule: nonzero; opacity: 1;" transform=" matrix(1 0 0 1 0 0) " stroke-linecap="round" />
	<path d="M 44.489 17.759 h -9.563 c -0.552 0 -1 -0.448 -1 -1 v -6.647 c 0 -0.552 0.448 -1 1 -1 h 9.563 c 0.552 0 1 0.448 1 1 v 6.647 C 45.489 17.311 45.041 17.759 44.489 17.759 z M 35.926 15.759 h 7.563 v -4.647 h -7.563 V 15.759 z" style="stroke: none; stroke-width: 1; stroke-dasharray: none; stroke-linecap: butt; stroke-linejoin: miter; stroke-miterlimit: 10; fill: rgb(0,0,0); fill-rule: nonzero; opacity: 1;" transform=" matrix(1 0 0 1 0 0) " stroke-linecap="round" />
	<path d="M 73.965 17.759 h -9.563 c -0.553 0 -1 -0.448 -1 -1 v -6.647 c 0 -0.552 0.447 -1 1 -1 h 9.563 c 0.553 0 1 0.448 1 1 v 6.647 C 74.965 17.311 74.518 17.759 73.965 17.759 z M 65.401 15.759 h 7.563 v -4.647 h -7.563 V 15.759 z" style="stroke: none; stroke-width: 1; stroke-dasharray: none; stroke-linecap: butt; stroke-linejoin: miter; stroke-miterlimit: 10; fill: rgb(0,0,0); fill-rule: nonzero; opacity: 1;" transform=" matrix(1 0 0 1 0 0) " stroke-linecap="round" />
</g>
</svg>
