<svg xmlns="http://www.w3.org/2000/svg" xmlns:xlink="http://www.w3.org/1999/xlink" version="1.1" width="256" height="256" viewBox="0 0 256 256" xml:space="preserve">

<defs>
</defs>
<g style="stroke: none; stroke-width: 0; stroke-dasharray: none; stroke-linecap: butt; stroke-linejoin: miter; stroke-miterlimit: 10; fill: none; fill-rule: nonzero; opacity: 1;" transform="translate(1.4065934065934016 1.4065934065934016) scale(2.81 2.81)" >
	<path d="M 84.004 35.207 L 46.355 0.529 c -0.767 -0.705 -1.944 -0.705 -2.71 0 L 5.996 35.207 c -0.813 0.749 -0.864 2.014 -0.116 2.826 c 0.749 0.813 2.014 0.864 2.826 0.116 l 2.204 -2.03 V 88 c 0 1.104 0.896 2 2 2 h 64.18 c 1.104 0 2 -0.896 2 -2 V 36.119 l 2.204 2.03 c 0.384 0.354 0.869 0.529 1.354 0.529 c 0.54 0 1.078 -0.217 1.472 -0.645 C 84.868 37.22 84.815 35.955 84.004 35.207 z M 75.09 86 H 14.91 V 32.434 L 45 4.719 l 30.09 27.715 V 86 z" style="stroke: none; stroke-width: 1; stroke-dasharray: none; stroke-linecap: butt; stroke-linejoin: miter; stroke-miterlimit: 10; fill: currentColor; fill-rule: nonzero; opacity: 1;" transform=" matrix(1 0 0 1 0 0) " stroke-linecap="round" />
	<path d="M 40.083 54.781 H 24.232 c -1.104 0 -2 -0.896 -2 -2 V 36.931 c 0 -1.104 0.896 -2 2 -2 h 15.851 c 1.104 0 2 0.896 2 2 v 15.851 C 42.083 53.886 41.187 54.781 40.083 54.781 z M 26.232 50.781 h 11.851 V 38.931 H 26.232 V 50.781 z" style="stroke: none; stroke-width: 1; stroke-dasharray: none; stroke-linecap: butt; stroke-linejoin: miter; stroke-miterlimit: 10; fill: currentColor; fill-rule: nonzero; opacity: 1;" transform=" matrix(1 0 0 1 0 0) " stroke-linecap="round" />
	<path d="M 65.768 54.781 H 49.917 c -1.104 0 -2 -0.896 -2 -2 V 36.931 c 0 -1.104 0.896 -2 2 -2 h 15.851 c 1.104 0 2 0.896 2 2 v 15.851 C 67.768 53.886 66.872 54.781 65.768 54.781 z M 51.917 50.781 h 11.851 V 38.931 H 51.917 V 50.781 z" style="stroke: none; stroke-width: 1; stroke-dasharray: none; stroke-linecap: butt; stroke-linejoin: miter; stroke-miterlimit: 10; fill: currentColor; fill-rule: nonzero; opacity: 1;" transform=" matrix(1 0 0 1 0 0) " stroke-linecap="round" />
	<path d="M 40.083 80.761 H 24.232 c -1.104 0 -2 -0.896 -2 -2 V 62.91 c 0 -1.104 0.896 -2 2 -2 h 15.851 c 1.104 0 2 0.896 2 2 v 15.851 C 42.083 79.865 41.187 80.761 40.083 80.761 z M 26.232 76.761 h 11.851 V 64.91 H 26.232 V 76.761 z" style="stroke: none; stroke-width: 1; stroke-dasharray: none; stroke-linecap: butt; stroke-linejoin: miter; stroke-miterlimit: 10; fill: currentColor; fill-rule: nonzero; opacity: 1;" transform=" matrix(1 0 0 1 0 0) " stroke-linecap="round" />
	<path d="M 65.768 80.761 H 49.917 c -1.104 0 -2 -0.896 -2 -2 V 62.91 c 0 -1.104 0.896 -2 2 -2 h 15.851 c 1.104 0 2 0.896 2 2 v 15.851 C 67.768 79.865 66.872 80.761 65.768 80.761 z M 51.917 76.761 h 11.851 V 64.91 H 51.917 V 76.761 z" style="stroke: none; stroke-width: 1; stroke-dasharray: none; stroke-linecap: butt; stroke-linejoin: miter; stroke-miterlimit: 10; fill: currentColor; fill-rule: nonzero; opacity: 1;" transform=" matrix(1 0 0 1 0 0) " stroke-linecap="round" />
</g>
</svg>
