<svg xmlns="http://www.w3.org/2000/svg" xmlns:xlink="http://www.w3.org/1999/xlink" version="1.1" width="256" height="256" viewBox="0 0 256 256" xml:space="preserve">

<defs>
</defs>
<g style="stroke: none; stroke-width: 0; stroke-dasharray: none; stroke-linecap: butt; stroke-linejoin: miter; stroke-miterlimit: 10; fill: none; fill-rule: nonzero; opacity: 1;" transform="translate(1.4065934065934016 1.4065934065934016) scale(2.81 2.81)" >
	<path d="M 51.947 55.763 H 38.053 c -0.552 0 -1 -0.447 -1 -1 V 40.869 c 0 -0.552 0.448 -1 1 -1 h 13.895 c 0.553 0 1 0.448 1 1 v 13.894 C 52.947 55.315 52.5 55.763 51.947 55.763 z M 39.053 53.763 h 11.895 V 41.869 H 39.053 V 53.763 z" style="stroke: none; stroke-width: 1; stroke-dasharray: none; stroke-linecap: butt; stroke-linejoin: miter; stroke-miterlimit: 10; fill: rgb(0,0,0); fill-rule: nonzero; opacity: 1;" transform=" matrix(1 0 0 1 0 0) " stroke-linecap="round" />
	<path d="M 72.971 55.763 H 59.077 c -0.553 0 -1 -0.447 -1 -1 V 40.869 c 0 -0.552 0.447 -1 1 -1 h 13.894 c 0.553 0 1 0.448 1 1 v 13.894 C 73.971 55.315 73.523 55.763 72.971 55.763 z M 60.077 53.763 h 11.894 V 41.869 H 60.077 V 53.763 z" style="stroke: none; stroke-width: 1; stroke-dasharray: none; stroke-linecap: butt; stroke-linejoin: miter; stroke-miterlimit: 10; fill: rgb(0,0,0); fill-rule: nonzero; opacity: 1;" transform=" matrix(1 0 0 1 0 0) " stroke-linecap="round" />
	<path d="M 30.923 55.763 H 17.029 c -0.552 0 -1 -0.447 -1 -1 V 40.869 c 0 -0.552 0.448 -1 1 -1 h 13.895 c 0.552 0 1 0.448 1 1 v 13.894 C 31.923 55.315 31.476 55.763 30.923 55.763 z M 18.029 53.763 h 11.895 V 41.869 H 18.029 V 53.763 z" style="stroke: none; stroke-width: 1; stroke-dasharray: none; stroke-linecap: butt; stroke-linejoin: miter; stroke-miterlimit: 10; fill: rgb(0,0,0); fill-rule: nonzero; opacity: 1;" transform=" matrix(1 0 0 1 0 0) " stroke-linecap="round" />
	<path d="M 72.971 76.932 H 59.077 c -0.553 0 -1 -0.447 -1 -1 V 62.037 c 0 -0.553 0.447 -1 1 -1 h 13.894 c 0.553 0 1 0.447 1 1 v 13.895 C 73.971 76.484 73.523 76.932 72.971 76.932 z M 60.077 74.932 h 11.894 V 63.037 H 60.077 V 74.932 z" style="stroke: none; stroke-width: 1; stroke-dasharray: none; stroke-linecap: butt; stroke-linejoin: miter; stroke-miterlimit: 10; fill: rgb(0,0,0); fill-rule: nonzero; opacity: 1;" transform=" matrix(1 0 0 1 0 0) " stroke-linecap="round" />
	<path d="M 30.923 76.932 H 17.029 c -0.552 0 -1 -0.447 -1 -1 V 62.037 c 0 -0.553 0.448 -1 1 -1 h 13.895 c 0.552 0 1 0.447 1 1 v 13.895 C 31.923 76.484 31.476 76.932 30.923 76.932 z M 18.029 74.932 h 11.895 V 63.037 H 18.029 V 74.932 z" style="stroke: none; stroke-width: 1; stroke-dasharray: none; stroke-linecap: butt; stroke-linejoin: miter; stroke-miterlimit: 10; fill: rgb(0,0,0); fill-rule: nonzero; opacity: 1;" transform=" matrix(1 0 0 1 0 0) " stroke-linecap="round" />
	<path d="M 88.538 31.734 c 0.553 0 1 -0.448 1 -1 v -8.861 c 0 -0.552 -0.447 -1 -1 -1 h -7.377 V 0.711 c 0 -0.552 -0.447 -1 -1 -1 H 9.839 c -0.552 0 -1 0.448 -1 1 v 20.163 H 1.462 c -0.552 0 -1 0.448 -1 1 v 8.861 c 0 0.552 0.448 1 1 1 h 7.377 v 55.977 H 1.462 c -0.552 0 -1 0.447 -1 1 s 0.448 1 1 1 h 8.377 h 28.213 h 13.895 h 28.214 h 8.377 c 0.553 0 1 -0.447 1 -1 s -0.447 -1 -1 -1 h -7.377 V 31.734 H 88.538 z M 10.839 1.711 h 68.322 v 19.163 H 10.839 V 1.711 z M 2.462 22.874 h 7.377 h 70.322 h 7.377 v 6.861 h -7.377 H 9.839 H 2.462 V 22.874 z M 50.947 73.518 L 40.467 63.037 h 10.481 V 73.518 z M 50.947 76.347 v 4.917 L 39.053 69.369 v -4.918 L 50.947 76.347 z M 39.053 87.711 V 72.197 l 11.895 11.895 v 3.619 H 39.053 z M 79.161 87.711 H 52.947 V 62.037 c 0 -0.553 -0.447 -1 -1 -1 H 38.053 c -0.13 0 -0.26 0.026 -0.382 0.077 c -0.245 0.101 -0.44 0.296 -0.541 0.541 c -0.051 0.122 -0.077 0.252 -0.077 0.382 v 25.674 H 10.839 V 31.734 h 68.322 V 87.711 z" style="stroke: none; stroke-width: 1; stroke-dasharray: none; stroke-linecap: butt; stroke-linejoin: miter; stroke-miterlimit: 10; fill: rgb(0,0,0); fill-rule: nonzero; opacity: 1;" transform=" matrix(1 0 0 1 0 0) " stroke-linecap="round" />
	<path d="M 19.664 17.85 c -0.552 0 -1 -0.448 -1 -1 V 5.735 c 0 -0.552 0.448 -1 1 -1 s 1 0.448 1 1 V 16.85 C 20.664 17.402 20.216 17.85 19.664 17.85 z" style="stroke: none; stroke-width: 1; stroke-dasharray: none; stroke-linecap: butt; stroke-linejoin: miter; stroke-miterlimit: 10; fill: rgb(0,0,0); fill-rule: nonzero; opacity: 1;" transform=" matrix(1 0 0 1 0 0) " stroke-linecap="round" />
	<path d="M 25.805 17.85 c -0.552 0 -1 -0.448 -1 -1 V 5.735 c 0 -0.552 0.448 -1 1 -1 s 1 0.448 1 1 V 16.85 C 26.805 17.402 26.357 17.85 25.805 17.85 z" style="stroke: none; stroke-width: 1; stroke-dasharray: none; stroke-linecap: butt; stroke-linejoin: miter; stroke-miterlimit: 10; fill: rgb(0,0,0); fill-rule: nonzero; opacity: 1;" transform=" matrix(1 0 0 1 0 0) " stroke-linecap="round" />
	<path d="M 25.805 12.292 h -6.141 c -0.552 0 -1 -0.448 -1 -1 s 0.448 -1 1 -1 h 6.141 c 0.552 0 1 0.448 1 1 S 26.357 12.292 25.805 12.292 z" style="stroke: none; stroke-width: 1; stroke-dasharray: none; stroke-linecap: butt; stroke-linejoin: miter; stroke-miterlimit: 10; fill: rgb(0,0,0); fill-rule: nonzero; opacity: 1;" transform=" matrix(1 0 0 1 0 0) " stroke-linecap="round" />
	<path d="M 34.34 17.85 h -0.591 c -2.082 0 -3.775 -1.693 -3.775 -3.775 V 8.51 c 0 -2.082 1.693 -3.775 3.775 -3.775 h 0.591 c 2.082 0 3.775 1.693 3.775 3.775 v 5.565 C 38.115 16.157 36.421 17.85 34.34 17.85 z M 33.749 6.735 c -0.979 0 -1.775 0.796 -1.775 1.775 v 5.565 c 0 0.979 0.796 1.775 1.775 1.775 h 0.591 c 0.979 0 1.775 -0.796 1.775 -1.775 V 8.51 c 0 -0.979 -0.796 -1.775 -1.775 -1.775 H 33.749 z" style="stroke: none; stroke-width: 1; stroke-dasharray: none; stroke-linecap: butt; stroke-linejoin: miter; stroke-miterlimit: 10; fill: rgb(0,0,0); fill-rule: nonzero; opacity: 1;" transform=" matrix(1 0 0 1 0 0) " stroke-linecap="round" />
	<path d="M 47.243 6.735 h -6.142 c -0.552 0 -1 -0.448 -1 -1 s 0.448 -1 1 -1 h 6.142 c 0.553 0 1 0.448 1 1 S 47.796 6.735 47.243 6.735 z" style="stroke: none; stroke-width: 1; stroke-dasharray: none; stroke-linecap: butt; stroke-linejoin: miter; stroke-miterlimit: 10; fill: rgb(0,0,0); fill-rule: nonzero; opacity: 1;" transform=" matrix(1 0 0 1 0 0) " stroke-linecap="round" />
	<path d="M 44.172 17.85 c -0.552 0 -1 -0.448 -1 -1 V 5.735 c 0 -0.552 0.448 -1 1 -1 s 1 0.448 1 1 V 16.85 C 45.172 17.402 44.725 17.85 44.172 17.85 z" style="stroke: none; stroke-width: 1; stroke-dasharray: none; stroke-linecap: butt; stroke-linejoin: miter; stroke-miterlimit: 10; fill: rgb(0,0,0); fill-rule: nonzero; opacity: 1;" transform=" matrix(1 0 0 1 0 0) " stroke-linecap="round" />
	<path d="M 58.175 6.735 h -6.141 c -0.553 0 -1 -0.448 -1 -1 s 0.447 -1 1 -1 h 6.141 c 0.553 0 1 0.448 1 1 S 58.728 6.735 58.175 6.735 z" style="stroke: none; stroke-width: 1; stroke-dasharray: none; stroke-linecap: butt; stroke-linejoin: miter; stroke-miterlimit: 10; fill: rgb(0,0,0); fill-rule: nonzero; opacity: 1;" transform=" matrix(1 0 0 1 0 0) " stroke-linecap="round" />
	<path d="M 52.034 17.85 c -0.553 0 -1 -0.448 -1 -1 V 5.735 c 0 -0.552 0.447 -1 1 -1 s 1 0.448 1 1 V 16.85 C 53.034 17.402 52.587 17.85 52.034 17.85 z" style="stroke: none; stroke-width: 1; stroke-dasharray: none; stroke-linecap: butt; stroke-linejoin: miter; stroke-miterlimit: 10; fill: rgb(0,0,0); fill-rule: nonzero; opacity: 1;" transform=" matrix(1 0 0 1 0 0) " stroke-linecap="round" />
	<path d="M 58.175 17.85 h -6.141 c -0.553 0 -1 -0.448 -1 -1 s 0.447 -1 1 -1 h 6.141 c 0.553 0 1 0.448 1 1 S 58.728 17.85 58.175 17.85 z" style="stroke: none; stroke-width: 1; stroke-dasharray: none; stroke-linecap: butt; stroke-linejoin: miter; stroke-miterlimit: 10; fill: rgb(0,0,0); fill-rule: nonzero; opacity: 1;" transform=" matrix(1 0 0 1 0 0) " stroke-linecap="round" />
	<path d="M 58.175 12.292 h -6.141 c -0.553 0 -1 -0.448 -1 -1 s 0.447 -1 1 -1 h 6.141 c 0.553 0 1 0.448 1 1 S 58.728 12.292 58.175 12.292 z" style="stroke: none; stroke-width: 1; stroke-dasharray: none; stroke-linecap: butt; stroke-linejoin: miter; stroke-miterlimit: 10; fill: rgb(0,0,0); fill-rule: nonzero; opacity: 1;" transform=" matrix(1 0 0 1 0 0) " stroke-linecap="round" />
	<path d="M 64.194 17.85 c -0.553 0 -1 -0.448 -1 -1 V 5.735 c 0 -0.552 0.447 -1 1 -1 s 1 0.448 1 1 V 16.85 C 65.194 17.402 64.747 17.85 64.194 17.85 z" style="stroke: none; stroke-width: 1; stroke-dasharray: none; stroke-linecap: butt; stroke-linejoin: miter; stroke-miterlimit: 10; fill: rgb(0,0,0); fill-rule: nonzero; opacity: 1;" transform=" matrix(1 0 0 1 0 0) " stroke-linecap="round" />
	<path d="M 70.336 17.85 h -6.142 c -0.553 0 -1 -0.448 -1 -1 s 0.447 -1 1 -1 h 6.142 c 0.553 0 1 0.448 1 1 S 70.889 17.85 70.336 17.85 z" style="stroke: none; stroke-width: 1; stroke-dasharray: none; stroke-linecap: butt; stroke-linejoin: miter; stroke-miterlimit: 10; fill: rgb(0,0,0); fill-rule: nonzero; opacity: 1;" transform=" matrix(1 0 0 1 0 0) " stroke-linecap="round" />
</g>
</svg>
